<?xml version="1.0"?>
<svg xmlns="http://www.w3.org/2000/svg" xmlns:xlink="http://www.w3.org/1999/xlink" xmlns:svgjs="http://svgjs.com/svgjs" version="1.1" width="512" height="512" x="0" y="0" viewBox="0 0 512.42 512.42" style="enable-background:new 0 0 512 512" xml:space="preserve"><g><g xmlns="http://www.w3.org/2000/svg"><path d="m220.951 276.726c3.737-1.787 5.318-6.266 3.531-10.002-1.786-3.737-6.266-5.318-10.001-3.531-22.865 10.934-38.577 32.904-41.946 57.646-17.251 6.29-31.414 18.491-40.211 34.81-1.965 3.646-.603 8.195 3.043 10.16 3.806 1.855 7.193.841 10.161-3.043 6.067-11.256 15.331-20.059 26.612-25.5 1.507 17.8 9.21 34.286 22.105 46.964 3.548 2.899 7.083 2.869 10.606-.09 2.904-2.953 2.864-7.702-.09-10.605-11.551-11.357-17.912-26.53-17.912-42.726 0-22.949 13.386-44.178 34.102-54.083z" fill="#eeeeee" data-original="#000000" style=""/><path d="m17.261 299.393c-1.484 3.867.448 8.206 4.315 9.689.884.34 1.792.5 2.686.5 3.015 0 5.859-1.832 7.003-4.814 4.457-11.613 14.251-20.546 26.198-23.895 3.448-.964 7.042-1.453 10.68-1.453 4.701 0 9.313.82 13.709 2.438 3.885 1.431 8.198-.561 9.629-4.447s-.56-8.198-4.447-9.629c-6.06-2.231-12.416-3.362-18.891-3.362-3.789 0-7.549.389-11.221 1.156-15.646-11.272-24.899-29.216-24.899-48.616 0-27.666 19.258-51.724 45.649-58.188 7.12 15.669 19.644 28.723 35.141 36.373 1.067.526 2.199.776 3.314.776 2.765-.001 5.425-1.535 6.731-4.183 1.833-3.714.309-8.211-3.405-10.045-13.965-6.894-24.926-19.263-30.07-33.929-2.223-6.358-3.35-13.025-3.35-19.815 0-33.034 26.875-59.91 59.91-59.91 12.693 0 25.049 3.987 35.327 11.52 3.339 2.448 8.034 1.727 10.483-1.615 2.449-3.341 1.725-8.034-1.616-10.482-5.245-3.844-10.934-6.955-16.954-9.302-1.428-21.944 13.423-43.16 37.11-43.16 19.745 0 35.933 15.502 37.044 34.974-.029.71.066 55.803.066 55.803-22.261 18.167-54.716 17.939-76.799-.99-3.145-2.695-7.88-2.332-10.575.813-2.696 3.145-2.332 7.88.813 10.575 14.033 12.028 31.417 18.018 48.777 18.018 13.094 0 26.167-3.426 37.784-10.221v286.428c0 4.143 3.358 7.5 7.5 7.5s7.501-3.357 7.501-7.5v-71.99h21.18v43.356c0 4.143 3.357 7.5 7.5 7.5h33.874c3.274 11.528 13.889 20 26.452 20 15.163 0 27.5-12.337 27.5-27.5s-12.337-27.5-27.5-27.5c-12.563 0-23.178 8.472-26.452 20h-26.374v-35.856h16c12.406 0 22.5-10.094 22.5-22.5v-7.498h14.326c4.143 0 7.5-3.357 7.5-7.5s-3.357-7.5-7.5-7.5h-14.326v-30.492h17.591c3.274 11.528 13.889 20 26.452 20 15.163 0 27.5-12.337 27.5-27.5s-12.337-27.5-27.5-27.5c-12.563 0-23.178 8.472-26.452 20h-17.591v-28.492h14.326c4.143 0 7.5-3.357 7.5-7.5s-3.357-7.5-7.5-7.5h-14.326v-7.497c0-12.406-10.094-22.5-22.5-22.5h-16v-35.857h26.374c3.274 11.528 13.889 20 26.452 20 15.163 0 27.5-12.337 27.5-27.5s-12.337-27.5-27.5-27.5c-12.563 0-23.178 8.472-26.452 20h-33.874c-4.143 0-7.5 3.357-7.5 7.5v43.357h-21.18s-.025-123.747-.054-124.457c1.111-19.472 17.297-34.974 37.043-34.974 23.508 0 38.545 21.538 37.11 43.495-6.026 2.348-11.714 5.458-16.959 9.301-3.341 2.448-4.064 7.142-1.616 10.483 2.45 3.342 7.143 4.063 10.483 1.616 10.584-7.611 22.36-11.451 35.327-11.52 33.034 0 59.909 26.876 59.909 59.91 0 22.211-13.543 43.933-33.419 53.744-3.715 1.834-5.239 6.331-3.406 10.045 2.879 3.99 6.227 5.125 10.045 3.406 15.596-7.699 28.178-20.873 35.276-36.681 21.268 5.207 38.075 21.611 43.627 43.152 2.3 4.527 5.345 6.324 9.135 5.391 4.011-1.034 6.425-5.124 5.391-9.135-6.845-26.554-27.363-46.875-53.422-53.691 1.172-5.307 1.774-10.737 1.774-16.23 0-41.306-33.604-74.91-74.909-74.91-4.128 0-8.217.345-12.235 1.006-.355-28.591-22.232-54.382-52.111-54.382-18.853 0-35.399 10.064-44.55 25.101-9.15-15.037-25.697-25.101-44.55-25.101-30.23 0-51.045 25.606-52.11 54.047-4.021-.661-8.111-1.007-12.24-1.007-41.306 0-74.91 33.604-74.91 74.91 0 5.611.631 11.155 1.855 16.572-14.4 3.782-27.452 11.811-37.373 23.157-11.925 13.64-18.492 31.142-18.492 49.28 0 21.068 8.728 40.76 23.834 54.805-10.657 6.197-19.102 15.917-23.596 27.629zm334.149 69.874c6.893 0 12.5 5.607 12.5 12.5s-5.607 12.5-12.5 12.5-12.5-5.607-12.5-12.5 5.607-12.5 12.5-12.5zm29.716-126.347c6.893 0 12.5 5.607 12.5 12.5s-5.607 12.5-12.5 12.5c-6.873 0-12.465-5.576-12.497-12.442 0-.02.003-.038.003-.058s-.003-.038-.003-.058c.032-6.866 5.624-12.442 12.497-12.442zm-29.716-124.347c6.893 0 12.5 5.607 12.5 12.5s-5.607 12.5-12.5 12.5-12.5-5.607-12.5-12.5 5.607-12.5 12.5-12.5zm-89.006 110.858h19.609v53.979h-19.609zm52.179-40c4.136 0 7.5 3.364 7.5 7.5v118.979c0 4.136-3.364 7.5-7.5 7.5h-52.18v-25h27.109c4.143 0 7.5-3.357 7.5-7.5v-68.979c0-4.143-3.357-7.5-7.5-7.5h-27.109v-25z" fill="#eeeeee" data-original="#000000" style=""/><path d="m231.59 212.861c-9.563-17.74-25.458-30.635-44.779-36.334-2.673-.894-5.742-.235-7.814 1.941-2.856 2.999-2.741 7.746.259 10.603.878.837 1.946 1.444 3.097 1.779v.001c15.552 4.526 28.349 14.871 36.034 29.127 2.968 3.884 6.355 4.898 10.161 3.043 3.645-1.964 5.007-6.514 3.042-10.16z" fill="#eeeeee" data-original="#000000" style=""/><path d="m496.029 318.91c0-19.693-10.705-37.575-27.191-47.161 10.718-9.964 18.296-22.818 21.75-37.241.965-4.028-1.52-8.076-5.547-9.041-4.031-.962-8.076 1.521-9.041 5.547-3.35 13.991-11.554 26.152-23.234 34.564-10.143-2.087-20.182-1.352-30.118 2.205-3.888 1.431-5.878 5.742-4.447 9.629s5.74 5.878 9.629 4.447c8.077-2.88 16.206-3.209 24.387-.986 16.964 4.752 28.813 20.394 28.813 38.038 0 16.782-10.824 31.73-26.336 37.24-3.994-5.387-8.677-10.211-13.994-14.368-3.264-2.551-7.978-1.977-10.528 1.288-2.552 3.264-1.975 7.977 1.288 10.528 14.474 11.318 23.01 28.867 23.01 47.202 0 33.034-26.876 59.909-59.91 59.909-12.666 0-24.77-3.904-35.01-11.298-7.396-5.321-13.577-12.388-17.875-20.435-1.95-3.653-6.493-5.035-10.148-3.082-3.653 1.951-5.034 6.494-3.082 10.148 4.711 8.822 11.235 16.699 18.999 22.987-2.177 21.476-20.505 38.389-42.469 38.389-22.408 0-41.404-17.982-42.628-40.311.189-4.658.091-9.371.058-14.029 0-4.143-3.357-7.5-7.5-7.5-.022 0-.043.003-.065.003s-.043-.003-.065-.003c-4.142 0-7.5 3.357-7.5 7.5-.033 4.661-.131 9.377.058 14.039-1.229 22.325-20.224 40.301-42.628 40.301-21.962 0-40.29-16.912-42.468-38.386 7.77-6.291 14.293-14.169 19.004-22.99 1.951-3.654.571-8.197-3.083-10.148-3.654-1.954-8.197-.572-10.149 3.082-4.298 8.048-10.479 15.113-17.885 20.441-10.229 7.387-22.332 11.291-34.999 11.291-33.035 0-59.91-26.875-59.91-59.909 0-11.248 3.13-22.196 9.056-31.686.065-.094.128-.189.189-.286 3.683-5.845 8.314-10.969 13.765-15.23 3.263-2.551 3.84-7.265 1.289-10.527-2.551-3.265-7.264-3.841-10.528-1.289-5.316 4.157-9.998 8.98-13.993 14.366-11.051-3.933-20.035-12.755-24.038-23.919-1.398-3.898-5.69-5.927-9.591-4.528-3.899 1.397-5.927 5.691-4.529 9.591 5.179 14.446 16.412 26.042 30.37 31.904-4.587 9.849-6.991 20.612-6.991 31.604 0 41.305 33.604 74.909 74.91 74.909 11.75 0 23.112-2.695 33.418-7.853 6.001 25.456 29.027 44.563 56.162 44.563 20.595 0 39.91-11.243 50.135-29.122 10.225 17.879 29.539 29.122 50.135 29.122 27.135 0 50.163-19.109 56.162-44.566 10.311 5.162 21.673 7.856 33.423 7.856 41.306 0 74.91-33.604 74.91-74.909 0-10.987-2.402-21.746-6.984-31.591 19.898-8.347 33.544-28.169 33.544-50.299z" fill="#eeeeee" data-original="#000000" style=""/></g></g></svg>
