<?xml version="1.0"?>
<svg xmlns="http://www.w3.org/2000/svg" xmlns:xlink="http://www.w3.org/1999/xlink" xmlns:svgjs="http://svgjs.com/svgjs" version="1.1" width="512" height="512" x="0" y="0" viewBox="0 0 496 496" style="enable-background:new 0 0 512 512" xml:space="preserve"><g>
<g xmlns="http://www.w3.org/2000/svg">
	<g>
		<path d="M448,88c0-49.344-87.848-88-200-88S48,38.656,48,88c0.009,2.686,0.277,5.365,0.8,8H48v312c0,49.344,87.848,88,200,88    s200-38.656,200-88V96h-0.8C447.723,93.365,447.991,90.686,448,88z M432,408c0,34.768-73.936,72-184,72S64,442.768,64,408v-44.92    C94.24,394.488,164.352,416,248,416s153.76-21.512,184-52.92V408z M432,328c0,34.768-73.936,72-184,72S64,362.768,64,328v-44.92    C94.24,314.488,164.352,336,248,336s153.76-21.512,184-52.92V328z M432,248c0,34.768-73.936,72-184,72S64,282.768,64,248v-44.92    C94.24,234.488,164.352,256,248,256s153.76-21.512,184-52.92V248z M432,168c0,34.768-73.936,72-184,72S64,202.768,64,168v-44.92    C94.24,154.488,164.352,176,248,176s153.76-21.512,184-52.92V168z M248,160c-110.064,0-184-37.232-184-72s73.936-72,184-72    s184,37.232,184,72S358.064,160,248,160z" fill="#eeeeee" data-original="#000000" style=""/>
	</g>
</g>
<g xmlns="http://www.w3.org/2000/svg">
</g>
<g xmlns="http://www.w3.org/2000/svg">
</g>
<g xmlns="http://www.w3.org/2000/svg">
</g>
<g xmlns="http://www.w3.org/2000/svg">
</g>
<g xmlns="http://www.w3.org/2000/svg">
</g>
<g xmlns="http://www.w3.org/2000/svg">
</g>
<g xmlns="http://www.w3.org/2000/svg">
</g>
<g xmlns="http://www.w3.org/2000/svg">
</g>
<g xmlns="http://www.w3.org/2000/svg">
</g>
<g xmlns="http://www.w3.org/2000/svg">
</g>
<g xmlns="http://www.w3.org/2000/svg">
</g>
<g xmlns="http://www.w3.org/2000/svg">
</g>
<g xmlns="http://www.w3.org/2000/svg">
</g>
<g xmlns="http://www.w3.org/2000/svg">
</g>
<g xmlns="http://www.w3.org/2000/svg">
</g>
</g></svg>
