<?xml version="1.0" standalone="no"?>
<!DOCTYPE svg PUBLIC "-//W3C//DTD SVG 20010904//EN"
 "http://www.w3.org/TR/2001/REC-SVG-20010904/DTD/svg10.dtd">
<svg version="1.0" xmlns="http://www.w3.org/2000/svg"
 width="1536.000000pt" height="1536.000000pt" viewBox="0 0 1536.000000 1536.000000"
 preserveAspectRatio="xMidYMid meet">
<metadata>
Created by potrace 1.14, written by Peter Selinger 2001-2017
</metadata>
<g transform="translate(0.000000,1536.000000) scale(0.100000,-0.100000)"
fill="#000000" stroke="none">
<path d="M1440 12960 l0 -2280 -300 0 -300 0 0 -300 0 -300 -300 0 -300 0 0
-660 0 -660 300 0 300 0 0 300 0 300 300 0 300 0 0 240 0 240 240 0 240 0 0
60 0 60 300 0 300 0 0 240 0 240 480 0 480 0 0 300 0 300 180 0 180 0 0 -960
0 -960 240 0 240 0 0 -300 0 -300 660 0 660 0 0 -300 0 -300 540 0 540 0 0
1260 0 1260 240 0 240 0 0 -540 0 -540 540 0 540 0 0 540 0 540 180 0 180 0 0
-1260 0 -1260 540 0 540 0 0 300 0 300 660 0 660 0 0 300 0 300 240 0 240 0 0
960 0 960 180 0 180 0 0 -300 0 -300 540 0 540 0 0 -240 0 -240 300 0 300 0 0
-60 0 -60 240 0 240 0 0 -240 0 -240 300 0 300 0 0 -300 0 -300 300 0 300 0 0
660 0 660 -300 0 -300 0 0 240 0 240 -300 0 -300 0 0 2340 0 2340 -1560 0
-1560 0 0 -2760 0 -2760 -840 0 -840 0 0 720 0 720 -1560 0 -1560 0 0 -720 0
-720 -840 0 -840 0 0 2760 0 2760 -1500 0 -1500 0 0 -2280z"/>
<path d="M5400 14640 l0 -120 -120 0 -120 0 0 -120 0 -120 120 0 120 0 0 -120
0 -120 180 0 180 0 0 120 0 120 120 0 120 0 0 120 0 120 -120 0 -120 0 0 120
0 120 -180 0 -180 0 0 -120z"/>
<path d="M7200 14280 l0 -240 -240 0 -240 0 0 -240 0 -240 240 0 240 0 0 -240
0 -240 360 0 360 0 0 240 0 240 240 0 240 0 0 240 0 240 -240 0 -240 0 0 240
0 240 -360 0 -360 0 0 -240z"/>
<path d="M9120 13320 l0 -120 120 0 120 0 0 120 0 120 -120 0 -120 0 0 -120z"/>
<path d="M5400 12720 l0 -120 120 0 120 0 0 120 0 120 -120 0 -120 0 0 -120z"/>
<path d="M10080 12720 l0 -120 120 0 120 0 0 120 0 120 -120 0 -120 0 0 -120z"/>
<path d="M6360 12240 l0 -120 120 0 120 0 0 120 0 120 -120 0 -120 0 0 -120z"/>
<path d="M9120 12240 l0 -120 -120 0 -120 0 0 -120 0 -120 120 0 120 0 0 -120
0 -120 180 0 180 0 0 120 0 120 120 0 120 0 0 120 0 120 -120 0 -120 0 0 120
0 120 -180 0 -180 0 0 -120z"/>
<path d="M1440 5820 l0 -3300 240 0 240 0 0 -180 0 -180 240 0 240 0 0 180 0
180 240 0 240 0 0 -300 0 -300 -240 0 -240 0 0 -180 0 -180 240 0 240 0 0
-240 0 -240 240 0 240 0 0 240 0 240 240 0 240 0 0 -240 0 -240 300 0 300 0 0
2340 0 2340 840 0 840 0 0 -540 0 -540 300 0 300 0 0 -540 0 -540 960 0 960 0
0 540 0 540 300 0 300 0 0 540 0 540 840 0 840 0 0 -2340 0 -2340 300 0 300 0
0 240 0 240 240 0 240 0 0 -240 0 -240 240 0 240 0 0 240 0 240 240 0 240 0 0
180 0 180 -180 0 -180 0 0 300 0 300 180 0 180 0 0 -180 0 -180 240 0 240 0 0
180 0 180 300 0 300 0 0 3300 0 3300 -540 0 -540 0 0 -600 0 -600 -480 0 -480
0 0 -600 0 -600 -240 0 -240 0 0 300 0 300 -300 0 -300 0 0 -300 0 -300 -240
0 -240 0 0 300 0 300 -360 0 -360 0 0 -300 0 -300 -540 0 -540 0 0 -420 0
-420 -240 0 -240 0 0 -540 0 -540 -480 0 -480 0 0 540 0 540 -240 0 -240 0 0
420 0 420 -540 0 -540 0 0 300 0 300 -360 0 -360 0 0 -300 0 -300 -240 0 -240
0 0 300 0 300 -300 0 -300 0 0 -300 0 -300 -180 0 -180 0 0 600 0 600 -480 0
-480 0 0 600 0 600 -540 0 -540 0 0 -3300z m960 1740 l0 -240 -240 0 -240 0 0
240 0 240 240 0 240 0 0 -240z m11160 0 l0 -240 -300 0 -300 0 0 240 0 240
300 0 300 0 0 -240z m-9240 -1260 l0 -420 -240 0 -240 0 0 420 0 420 240 0
240 0 0 -420z m7200 0 l0 -420 -240 0 -240 0 0 420 0 420 240 0 240 0 0 -420z
m-9120 -2940 l0 -240 -240 0 -240 0 0 240 0 240 240 0 240 0 0 -240z m960 0
l0 -240 -240 0 -240 0 0 240 0 240 240 0 240 0 0 -240z m10200 -60 l0 -180
-240 0 -240 0 0 180 0 180 240 0 240 0 0 -180z"/>
<path d="M7200 8640 l0 -240 180 0 180 0 0 240 0 240 -180 0 -180 0 0 -240z"/>
<path d="M7800 8640 l0 -240 180 0 180 0 0 240 0 240 -180 0 -180 0 0 -240z"/>
<path d="M1920 1740 l0 -180 180 0 180 0 0 180 0 180 -180 0 -180 0 0 -180z"/>
<path d="M1440 1260 l0 -180 180 0 180 0 0 180 0 180 -180 0 -180 0 0 -180z"/>
<path d="M12960 1260 l0 -180 180 0 180 0 0 180 0 180 -180 0 -180 0 0 -180z"/>
<path d="M1920 360 l0 -240 240 0 240 0 0 240 0 240 -240 0 -240 0 0 -240z"/>
<path d="M13080 360 l0 -240 240 0 240 0 0 240 0 240 -240 0 -240 0 0 -240z"/>
</g>
</svg>
